<?xml version="1.0" encoding="utf-8"?>
<!-- Generator: Adobe Illustrator 22.1.0, SVG Export Plug-In . SVG Version: 6.00 Build 0)  -->
<svg version="1.1" id="ProxyPlants" xmlns="http://www.w3.org/2000/svg" xmlns:xlink="http://www.w3.org/1999/xlink" x="0px"
	 y="0px" width="232.6px" height="32px" viewBox="0 0 232.6 32" style="enable-background:new 0 0 232.6 32;" xml:space="preserve">
<path d="M49.6,20.2v-7.9h-7.9v7.9H49.6z M51.5,10.4v11.8H39.7V10.4H51.5z"/>
<polygon points="85.1,6.4 85.1,26.1 83.1,26.1 83.1,9.4 75.2,17.3 67.3,9.4 67.3,26.1 65.4,26.1 65.4,6.4 67.3,6.4 75.2,14.3 
	83.1,6.4 "/>
<polygon points="21.9,12.3 12.1,12.3 12.1,20.2 21.9,20.2 23.9,22.2 10.1,22.2 10.1,10.4 23.9,10.4 "/>
<path d="M146.3,28.1V4.4h-23.7v23.7H146.3z M120.6,30.1V2.5h27.6v27.6H120.6z"/>
<path d="M142.3,8.4h-15.8v15.8h15.8V8.4z M144.3,26.1h-19.7V6.4h19.7V26.1z"/>
<path d="M4.1,28.6h24.8v-4.1l-6.2-6.2h-8.3v-4.1h8.3L28.9,8V3.8H4.1V28.6z M2,30.7V1.8h28.9V9l-7.2,7.2l7.2,7.2v7.2H2z"/>
<rect x="43.7" y="14.3" width="3.9" height="3.9"/>
<path d="M37.7,8.4v15.8h15.8V8.4H37.7z M55.5,26.1H35.8V6.4h19.7V26.1z"/>
<path d="M130.5,20.2h7.9v-7.9h-7.9V20.2z M140.4,10.4v11.8h-11.8V10.4H140.4z"/>
<polygon points="8.1,8.4 8.1,24.2 25.9,24.2 25.9,26.1 6.2,26.1 6.2,6.4 25.9,6.4 25.9,8.4 "/>
<path d="M57.5,4.4H33.8v23.7h23.7V4.4z M31.8,2.5h27.6v27.6H31.8V2.5z"/>
<path d="M112.7,20.2V8.4H96.9v15.8h19.7V4.4H93v23.7h5.9v-2H95V6.4h19.7v15.8H98.9V10.4h11.8v7.9h-7.9v-3.9h3.9v2h2v-3.9h-7.9v7.9
	H112.7z M91,2.5h27.6v23.7h-17.8v3.9H91V2.5z"/>
<rect x="132.5" y="14.3" width="3.9" height="3.9"/>
<path d="M63.4,4.4v23.7h3.9l2-2v-9.9h2l3.9,3.9l3.9-3.9h2v9.9l2,2h3.9V4.4h-4.9l-6.9,6.9l-6.9-6.9H63.4z M69.3,2.5l5.9,5.9l5.9-5.9
	H89v27.6h-6.9l-3-3v-7.9l-3.9,3.9l-3.9-3.9v7.9l-3,3h-6.9V2.5H69.3z"/>
<polygon points="165.2,11.2 158.8,11.2 158.8,9.2 158.5,7.4 158.2,7.2 157.7,7.1 157.2,7.2 156.8,7.6 156.5,8.2 156.5,9.1 
	156.5,10.3 156.8,11.1 157.5,11.9 158.8,12.7 162.5,15.2 163.7,16.3 164.6,17.2 165.1,18.2 165.5,19.5 165.8,22.9 165.6,25.3 
	165.1,27 164.1,28.3 162.5,29.3 160.5,30 158.1,30.2 155.5,29.9 153.4,29.1 151.8,28 150.8,26.5 150.4,24.5 150.2,21.9 150.2,20.1 
	156.6,20.1 156.6,23.4 156.7,24.6 156.9,25.3 157.3,25.6 157.8,25.7 158.4,25.6 158.9,25.2 159.1,24.5 159.2,23.6 159,21.6 
	158.6,20.5 155.3,18.1 151.9,15.6 151.2,14.7 150.6,13.5 150.1,12 150,10 150.2,7.4 150.8,5.6 151.8,4.3 153.3,3.4 155.2,2.8 
	157.5,2.6 160,2.8 162.1,3.5 163.6,4.4 164.6,5.6 165,7.4 165.2,10.1 "/>
<polygon points="184,14.7 177.1,14.7 177.1,10.1 176.9,7.6 176.5,7.2 175.9,7.1 175.2,7.2 174.8,7.7 174.6,10.3 174.6,22.6 
	174.8,25.1 175.2,25.6 175.9,25.7 176.5,25.6 176.9,25.1 177.1,22.3 177.1,19 184,19 184,20.1 183.9,23.6 183.4,25.9 182.5,27.5 
	180.9,28.9 178.6,29.9 175.9,30.2 173.2,29.9 171,29.1 169.3,27.8 168.4,26.1 167.9,23.6 167.7,20.2 167.7,12.5 167.9,8.2 
	168.3,6.8 169.1,5.4 170.2,4.2 171.8,3.3 173.6,2.8 175.8,2.6 178.5,2.9 180.8,3.8 182.4,5.1 183.4,6.7 183.8,8.9 184,12.2 "/>
<polygon points="186.5,3.1 198,3.1 198,8.4 193.4,8.4 193.4,13.5 197.7,13.5 197.7,18.5 193.4,18.5 193.4,24.3 198.4,24.3 
	198.4,29.6 186.5,29.6 "/>
<polygon points="215.8,3.1 215.8,29.6 209.7,29.6 206.2,17.6 206.2,29.6 200.4,29.6 200.4,3.1 206.2,3.1 210,15.1 210,3.1 "/>
<polygon points="218.6,3.1 230,3.1 230,8.4 225.4,8.4 225.4,13.5 229.7,13.5 229.7,18.5 225.4,18.5 225.4,24.3 230.5,24.3 
	230.5,29.6 218.6,29.6 "/>
</svg>
