<?xml version="1.0" encoding="utf-8"?>
<!-- Generator: Adobe Illustrator 22.1.0, SVG Export Plug-In . SVG Version: 6.00 Build 0)  -->
<svg version="1.1" id="Layer_2" xmlns="http://www.w3.org/2000/svg" xmlns:xlink="http://www.w3.org/1999/xlink" x="0px" y="0px"
	 width="32px" height="32px" viewBox="0 0 32 32" style="enable-background:new 0 0 32 32;" xml:space="preserve">
<style type="text/css">
	.st0{fill:#363636;}
	.st1{fill:#9F9F9F;}
	.st2{fill:#6A6A6A;}
	.st3{fill:#EEEEEE;}
	.st4{fill:#D3D3D3;}
	.st5{fill:none;}
</style>
<polygon class="st0" points="6.4,16 6.4,12.2 8.3,12.2 8.3,16 8.3,21.7 8.3,23.6 10.2,23.6 10.2,27.4 12.1,27.4 12.1,25.5 14,25.5 
	14,27.4 17.8,27.4 17.8,25.5 19.7,25.5 19.7,27.4 21.6,27.4 23.5,27.4 23.5,29.3 19.7,29.3 19.7,31.2 12.1,31.2 12.1,29.3 8.3,29.3 
	8.3,27.4 6.4,27.4 6.4,23.6 4.5,23.6 4.5,16 "/>
<polygon class="st1" points="19.7,10.3 23.5,10.3 23.5,12.2 21.6,12.2 19.7,12.2 "/>
<rect x="23.5" y="12.2" class="st1" width="1.9" height="3.8"/>
<rect x="8.3" y="10.3" class="st0" width="1.9" height="1.9"/>
<rect x="8.3" y="12.2" class="st2" width="1.9" height="3.8"/>
<polygon class="st2" points="10.2,12.2 10.2,10.3 12.1,10.3 17.8,10.3 19.7,10.3 19.7,12.2 "/>
<polygon class="st3" points="10.2,12.2 19.7,12.2 21.6,12.2 21.6,16 23.5,16 23.5,23.6 21.6,23.6 21.6,25.5 19.7,25.5 17.8,25.5 
	14,25.5 12.1,25.5 12.1,23.6 10.2,23.6 10.2,21.7 14,21.7 14,23.6 17.8,23.6 17.8,21.7 21.6,21.7 21.6,17.9 17.8,17.9 17.8,21.7 
	14,21.7 14,17.9 10.2,17.9 10.2,21.7 8.3,21.7 8.3,16 10.2,16 "/>
<rect x="8.3" y="21.7" class="st4" width="1.9" height="1.9"/>
<rect x="10.2" y="17.9" class="st2" width="3.8" height="3.8"/>
<rect x="14" y="21.7" class="st2" width="3.8" height="1.9"/>
<polygon class="st0" points="17.8,10.3 12.1,10.3 12.1,6.5 14,6.5 15.9,6.5 15.9,8.4 17.8,8.4 "/>
<polygon class="st1" points="19.7,10.3 17.8,10.3 17.8,8.4 17.8,6.5 19.7,6.5 "/>
<rect x="25.4" y="16" class="st1" width="1.9" height="7.6"/>
<rect x="17.8" y="17.9" class="st2" width="3.8" height="3.8"/>
<polygon class="st2" points="23.5,16 25.4,16 25.4,23.6 25.4,27.4 23.5,27.4 21.6,27.4 21.6,25.5 21.6,23.6 23.5,23.6 "/>
<rect x="21.6" y="12.2" class="st2" width="1.9" height="3.8"/>
<polygon class="st4" points="10.2,27.4 10.2,23.6 12.1,23.6 12.1,25.5 12.1,27.4 "/>
<rect x="15.9" y="0.8" class="st4" width="1.9" height="1.9"/>
<rect x="17.8" y="2.7" class="st4" width="1.9" height="1.9"/>
<polygon class="st4" points="14,4.6 17.8,4.6 17.8,6.5 15.9,6.5 14,6.5 "/>
<rect x="19.7" y="25.5" class="st4" width="1.9" height="1.9"/>
<rect x="15.9" y="6.5" class="st2" width="1.9" height="1.9"/>
<rect x="14" y="25.5" class="st4" width="3.8" height="1.9"/>
</svg>
