<?xml version="1.0" encoding="utf-8"?>
<!-- Generator: Adobe Illustrator 22.1.0, SVG Export Plug-In . SVG Version: 6.00 Build 0)  -->
<svg version="1.1" id="ProxyPlants" xmlns="http://www.w3.org/2000/svg" xmlns:xlink="http://www.w3.org/1999/xlink" x="0px"
	 y="0px" width="32px" height="32px" viewBox="0 0 32 32" style="enable-background:new 0 0 32 32;" xml:space="preserve">
<style type="text/css">
	.st0{fill:none;}
</style>
<g>
	<path d="M2.8,2.8v26.5h26.5v-4.4l-6.6-6.6h-8.8v-4.4h8.8l6.6-6.6V2.8H2.8z M31.5,31.5H0.5V0.5h30.9v7.7L23.7,16l7.7,7.7V31.5z"/>
	<polygon points="9.4,9.4 24.8,9.4 22.6,11.6 11.6,11.6 11.6,20.4 22.6,20.4 24.8,22.6 9.4,22.6 	"/>
	<polygon points="7.2,7.2 7.2,24.8 27,24.8 27,27 5,27 5,5 27,5 27,7.2 	"/>
	<line class="st0" x1="31.5" y1="31.5" x2="0.5" y2="31.5"/>
	<line class="st0" x1="9.4" y1="9.4" x2="24.8" y2="9.4"/>
	<line class="st0" x1="2.8" y1="2.8" x2="2.8" y2="29.2"/>
	<line class="st0" x1="7.2" y1="24.8" x2="7.2" y2="7.2"/>
	<line class="st0" x1="22.6" y1="11.6" x2="24.8" y2="9.4"/>
	<line class="st0" x1="11.6" y1="20.4" x2="22.6" y2="20.4"/>
	<line class="st0" x1="13.8" y1="18.2" x2="22.6" y2="18.2"/>
	<line class="st0" x1="0.5" y1="0.5" x2="0.5" y2="31.5"/>
	<line class="st0" x1="31.5" y1="23.7" x2="31.5" y2="31.5"/>
	<line class="st0" x1="27" y1="27" x2="27" y2="24.8"/>
	<line class="st0" x1="31.5" y1="0.5" x2="31.5" y2="8.3"/>
	<line class="st0" x1="29.2" y1="24.8" x2="29.2" y2="29.2"/>
	<line class="st0" x1="29.2" y1="24.8" x2="22.6" y2="18.2"/>
	<line class="st0" x1="2.8" y1="2.8" x2="29.2" y2="2.8"/>
	<line class="st0" x1="5" y1="5" x2="5" y2="27"/>
	<line class="st0" x1="27" y1="7.2" x2="7.2" y2="7.2"/>
	<line class="st0" x1="2.8" y1="29.2" x2="29.2" y2="29.2"/>
	<line class="st0" x1="5" y1="27" x2="27" y2="27"/>
	<line class="st0" x1="29.2" y1="2.8" x2="29.2" y2="7.2"/>
	<line class="st0" x1="27" y1="5" x2="27" y2="7.2"/>
	<line class="st0" x1="13.8" y1="18.2" x2="13.8" y2="13.8"/>
	<line class="st0" x1="11.6" y1="11.6" x2="11.6" y2="20.4"/>
	<line class="st0" x1="31.5" y1="0.5" x2="0.5" y2="0.5"/>
	<line class="st0" x1="22.6" y1="13.8" x2="29.2" y2="7.2"/>
	<line class="st0" x1="31.5" y1="8.3" x2="23.7" y2="16"/>
	<line class="st0" x1="11.6" y1="11.6" x2="22.6" y2="11.6"/>
	<line class="st0" x1="9.4" y1="22.6" x2="24.8" y2="22.6"/>
	<line class="st0" x1="24.8" y1="22.6" x2="22.6" y2="20.4"/>
	<line class="st0" x1="31.5" y1="23.7" x2="23.7" y2="16"/>
	<line class="st0" x1="13.8" y1="13.8" x2="22.6" y2="13.8"/>
	<line class="st0" x1="9.4" y1="9.4" x2="9.4" y2="22.6"/>
	<line class="st0" x1="27" y1="24.8" x2="7.2" y2="24.8"/>
	<line class="st0" x1="27" y1="5" x2="5" y2="5"/>
</g>
</svg>
